<svg width="48" height="48" viewBox="0 0 48 48" fill="none" xmlns="http://www.w3.org/2000/svg">
<mask id="mask0_3098_15996" style="mask-type:alpha" maskUnits="userSpaceOnUse" x="0" y="0" width="48" height="48">
<rect width="48" height="48" fill="#D9D9D9"/>
</mask>
<g mask="url(#mask0_3098_15996)">
<path d="M38 16V12H34V8H38V4H42V8H46V12H42V16H38ZM6 44C4.9 44 3.95833 43.6083 3.175 42.825C2.39167 42.0417 2 41.1 2 40V16C2 14.9 2.39167 13.9583 3.175 13.175C3.95833 12.3917 4.9 12 6 12H12.3L16 8H28V12H17.75L14.1 16H6V40H38V22H42V40C42 41.1 41.6083 42.0417 40.825 42.825C40.0417 43.6083 39.1 44 38 44H6ZM22 37C24.5 37 26.625 36.125 28.375 34.375C30.125 32.625 31 30.5 31 28C31 25.5 30.125 23.375 28.375 21.625C26.625 19.875 24.5 19 22 19C19.5 19 17.375 19.875 15.625 21.625C13.875 23.375 13 25.5 13 28C13 30.5 13.875 32.625 15.625 34.375C17.375 36.125 19.5 37 22 37ZM22 33C20.6 33 19.4167 32.5167 18.45 31.55C17.4833 30.5833 17 29.4 17 28C17 26.6 17.4833 25.4167 18.45 24.45C19.4167 23.4833 20.6 23 22 23C23.4 23 24.5833 23.4833 25.55 24.45C26.5167 25.4167 27 26.6 27 28C27 29.4 26.5167 30.5833 25.55 31.55C24.5833 32.5167 23.4 33 22 33Z" fill="#28303F"/>
</g>
</svg>
