<svg width="36" height="36" viewBox="0 0 36 36" fill="none" xmlns="http://www.w3.org/2000/svg">
<mask id="mask0_5308_19837" style="mask-type:alpha" maskUnits="userSpaceOnUse" x="0" y="0" width="36" height="36">
<rect width="36" height="36" fill="#D9D9D9"/>
</mask>
<g mask="url(#mask0_5308_19837)">
<path d="M22.5 25.5C20.675 25.5 19.0813 24.9313 17.7188 23.7938C16.3562 22.6562 15.5 21.225 15.15 19.5H6V16.5H15.15C15.275 15.925 15.4438 15.3875 15.6562 14.8875C15.8687 14.3875 16.15 13.925 16.5 13.5H9V10.5H22.5C24.575 10.5 26.3438 11.2312 27.8063 12.6937C29.2688 14.1562 30 15.925 30 18C30 20.075 29.2688 21.8438 27.8063 23.3063C26.3438 24.7688 24.575 25.5 22.5 25.5ZM22.5 22.5C23.75 22.5 24.8125 22.0625 25.6875 21.1875C26.5625 20.3125 27 19.25 27 18C27 16.75 26.5625 15.6875 25.6875 14.8125C24.8125 13.9375 23.75 13.5 22.5 13.5C21.25 13.5 20.1875 13.9375 19.3125 14.8125C18.4375 15.6875 18 16.75 18 18C18 19.25 18.4375 20.3125 19.3125 21.1875C20.1875 22.0625 21.25 22.5 22.5 22.5ZM10.5 25.5V22.5H15V25.5H10.5Z" fill="white"/>
</g>
</svg>
