<svg width="36" height="36" viewBox="0 0 36 36" fill="none" xmlns="http://www.w3.org/2000/svg">
<mask id="mask0_5334_690" style="mask-type:alpha" maskUnits="userSpaceOnUse" x="0" y="0" width="36" height="36">
<rect width="36" height="36" fill="#D9D9D9"/>
</mask>
<g mask="url(#mask0_5334_690)">
<path d="M1.5 31.5V13.5H4.5V16.5H7.5V4.5H10.5V7.5H13.5V4.5H16.5V7.5H19.5V4.5H22.5V7.5H25.5V4.5H28.5V16.5H31.5V13.5H34.5V31.5H21V27C21 26.175 20.7063 25.4688 20.1188 24.8813C19.5312 24.2938 18.825 24 18 24C17.175 24 16.4688 24.2938 15.8813 24.8813C15.2938 25.4688 15 26.175 15 27V31.5H1.5ZM4.5 28.5H12V27C12 25.35 12.5875 23.9375 13.7625 22.7625C14.9375 21.5875 16.35 21 18 21C19.65 21 21.0625 21.5875 22.2375 22.7625C23.4125 23.9375 24 25.35 24 27V28.5H31.5V19.5H25.5V10.5H10.5V19.5H4.5V28.5ZM13.5 18H16.5V13.5H13.5V18ZM19.5 18H22.5V13.5H19.5V18Z" fill="url(#paint0_linear_5334_690)"/>
</g>
<defs>
<linearGradient id="paint0_linear_5334_690" x1="18" y1="4.5" x2="18" y2="31.5" gradientUnits="userSpaceOnUse">
<stop stop-color="#F24055"/>
<stop offset="1" stop-color="#1E7881"/>
</linearGradient>
</defs>
</svg>
