<svg width="53" height="53" viewBox="0 0 53 53" fill="none" xmlns="http://www.w3.org/2000/svg">
<mask id="mask0_5415_26694" style="mask-type:alpha" maskUnits="userSpaceOnUse" x="0" y="0" width="53" height="53">
<rect x="0.5" y="0.5" width="52" height="52" fill="#D9D9D9"/>
</mask>
<g mask="url(#mask0_5415_26694)">
<path d="M4.83325 37.3335V7.00016C4.83325 6.38627 5.04089 5.87169 5.45617 5.45641C5.87145 5.04113 6.38603 4.8335 6.99992 4.8335H35.1666C35.7805 4.8335 36.2951 5.04113 36.7103 5.45641C37.1256 5.87169 37.3332 6.38627 37.3332 7.00016V26.5002C37.3332 27.1141 37.1256 27.6286 36.7103 28.0439C36.2951 28.4592 35.7805 28.6668 35.1666 28.6668H13.4999L4.83325 37.3335ZM15.6666 39.5002C15.0527 39.5002 14.5381 39.2925 14.1228 38.8772C13.7076 38.462 13.4999 37.9474 13.4999 37.3335V33.0002H41.6666V13.5002H45.9999C46.6138 13.5002 47.1284 13.7078 47.5437 14.1231C47.9589 14.5384 48.1666 15.0529 48.1666 15.6668V48.1668L39.4999 39.5002H15.6666ZM32.9999 9.16683H9.16658V26.8793L11.7124 24.3335H32.9999V9.16683Z" fill="#28303F"/>
</g>
</svg>
