<svg width="53" height="53" viewBox="0 0 53 53" fill="none" xmlns="http://www.w3.org/2000/svg">
<g opacity="0.95">
<mask id="mask0_5415_26875" style="mask-type:alpha" maskUnits="userSpaceOnUse" x="0" y="0" width="53" height="53">
<rect x="0.5" y="0.5" width="52" height="52" fill="#D9D9D9"/>
</mask>
<g mask="url(#mask0_5415_26875)">
<path d="M10.25 46.0002C9.34722 46.0002 8.57986 45.6842 7.94792 45.0523C7.31597 44.4203 7 43.653 7 42.7502V38.6335L15.6667 30.9419V46.0002H10.25ZM17.8333 46.0002V37.3335H35.1667V46.0002H17.8333ZM37.3333 46.0002V28.2335L28.0708 20.0002L34.625 14.2044L44.9167 23.3585C45.2778 23.6835 45.5486 24.0537 45.7292 24.4689C45.9097 24.8842 46 25.3266 46 25.796V42.7502C46 43.653 45.684 44.4203 45.0521 45.0523C44.4201 45.6842 43.6528 46.0002 42.75 46.0002H37.3333ZM7 35.7085V25.796C7 25.3266 7.09028 24.8752 7.27083 24.4419C7.45139 24.0085 7.72222 23.6474 8.08333 23.3585L24.3333 8.9502C24.6222 8.66131 24.9563 8.45367 25.3354 8.32728C25.7146 8.20089 26.1028 8.1377 26.5 8.1377C26.8972 8.1377 27.2854 8.20089 27.6646 8.32728C28.0438 8.45367 28.3778 8.66131 28.6667 8.9502L33 12.796L7 35.7085Z" fill="#28303F"/>
</g>
</g>
</svg>
