<svg width="53" height="53" viewBox="0 0 53 53" fill="none" xmlns="http://www.w3.org/2000/svg">
<g opacity="0.95">
<mask id="mask0_5415_26668" style="mask-type:alpha" maskUnits="userSpaceOnUse" x="0" y="0" width="53" height="53">
<rect x="0.5" y="0.5" width="52" height="52" fill="#D9D9D9"/>
</mask>
<g mask="url(#mask0_5415_26668)">
<path d="M10.25 45.9999C9.34722 45.9999 8.57986 45.684 7.94792 45.052C7.31597 44.4201 7 43.6527 7 42.7499V38.6333L15.6667 30.9416V45.9999H10.25ZM17.8333 45.9999V37.3333H35.1667V45.9999H17.8333ZM37.3333 45.9999V28.2333L28.0708 20L34.625 14.2041L44.9167 23.3583C45.2778 23.6833 45.5486 24.0534 45.7292 24.4687C45.9097 24.884 46 25.3263 46 25.7958V42.7499C46 43.6527 45.684 44.4201 45.0521 45.052C44.4201 45.684 43.6528 45.9999 42.75 45.9999H37.3333ZM7 35.7083V25.7958C7 25.3263 7.09028 24.875 7.27083 24.4416C7.45139 24.0083 7.72222 23.6472 8.08333 23.3583L24.3333 8.94995C24.6222 8.66106 24.9563 8.45342 25.3354 8.32703C25.7146 8.20065 26.1028 8.13745 26.5 8.13745C26.8972 8.13745 27.2854 8.20065 27.6646 8.32703C28.0438 8.45342 28.3778 8.66106 28.6667 8.94995L33 12.7958L7 35.7083Z" fill="url(#paint0_linear_5415_26668)"/>
</g>
</g>
<defs>
<linearGradient id="paint0_linear_5415_26668" x1="7" y1="27.0687" x2="46" y2="27.0687" gradientUnits="userSpaceOnUse">
<stop stop-color="#F24055"/>
<stop offset="1" stop-color="#1E7881"/>
</linearGradient>
</defs>
</svg>
