<svg width="56" height="56" viewBox="0 0 56 56" fill="none" xmlns="http://www.w3.org/2000/svg">
<mask id="mask0_5334_524" style="mask-type:alpha" maskUnits="userSpaceOnUse" x="0" y="0" width="56" height="56">
<rect width="56" height="56" fill="#D9D9D9"/>
</mask>
<g mask="url(#mask0_5334_524)">
<path d="M9.33333 39.6667C8.67222 39.6667 8.11844 39.4427 7.672 38.9947C7.224 38.5483 7 37.9945 7 37.3334C7 36.6723 7.224 36.1177 7.672 35.6697C8.11844 35.2233 8.67222 35 9.33333 35C9.99444 35 10.549 35.2233 10.997 35.6697C11.4434 36.1177 11.6667 36.6723 11.6667 37.3334C11.6667 37.9945 11.4434 38.5483 10.997 38.9947C10.549 39.4427 9.99444 39.6667 9.33333 39.6667ZM9.33333 30.3334C8.67222 30.3334 8.11844 30.1094 7.672 29.6614C7.224 29.2149 7 28.6612 7 28C7 27.3389 7.224 26.7844 7.672 26.3364C8.11844 25.8899 8.67222 25.6667 9.33333 25.6667C9.99444 25.6667 10.549 25.8899 10.997 26.3364C11.4434 26.7844 11.6667 27.3389 11.6667 28C11.6667 28.6612 11.4434 29.2149 10.997 29.6614C10.549 30.1094 9.99444 30.3334 9.33333 30.3334ZM9.33333 21C8.67222 21 8.11844 20.776 7.672 20.328C7.224 19.8816 7 19.3278 7 18.6667C7 18.0056 7.224 17.451 7.672 17.003C8.11844 16.5566 8.67222 16.3334 9.33333 16.3334C9.99444 16.3334 10.549 16.5566 10.997 17.003C11.4434 17.451 11.6667 18.0056 11.6667 18.6667C11.6667 19.3278 11.4434 19.8816 10.997 20.328C10.549 20.776 9.99444 21 9.33333 21ZM16.3333 39.6667V35H49V39.6667H16.3333ZM16.3333 30.3334V25.6667H49V30.3334H16.3333ZM16.3333 21V16.3334H49V21H16.3333Z" fill="#28303F"/>
</g>
</svg>
