<svg width="33" height="32" viewBox="0 0 33 32" fill="none" xmlns="http://www.w3.org/2000/svg">
<mask id="mask0_2851_5558" style="mask-type:alpha" maskUnits="userSpaceOnUse" x="0" y="0" width="33" height="32">
<rect x="0.5" width="32" height="32" fill="#D9D9D9"/>
</mask>
<g mask="url(#mask0_2851_5558)">
<path d="M5.83331 25.3333V22.6666H8.49998V13.3333C8.49998 11.4888 9.05554 9.84996 10.1666 8.41663C11.2778 6.98329 12.7222 6.0444 14.5 5.59996V4.66663C14.5 4.11107 14.6944 3.63885 15.0833 3.24996C15.4722 2.86107 15.9444 2.66663 16.5 2.66663C17.0555 2.66663 17.5278 2.86107 17.9166 3.24996C18.3055 3.63885 18.5 4.11107 18.5 4.66663V5.59996C20.2778 6.0444 21.7222 6.98329 22.8333 8.41663C23.9444 9.84996 24.5 11.4888 24.5 13.3333V22.6666H27.1666V25.3333H5.83331ZM16.5 29.3333C15.7666 29.3333 15.1389 29.0722 14.6166 28.55C14.0944 28.0277 13.8333 27.4 13.8333 26.6666H19.1666C19.1666 27.4 18.9055 28.0277 18.3833 28.55C17.8611 29.0722 17.2333 29.3333 16.5 29.3333ZM11.1666 22.6666H21.8333V13.3333C21.8333 11.8666 21.3111 10.6111 20.2666 9.56663C19.2222 8.52218 17.9666 7.99996 16.5 7.99996C15.0333 7.99996 13.7778 8.52218 12.7333 9.56663C11.6889 10.6111 11.1666 11.8666 11.1666 13.3333V22.6666Z" fill="#28303F"/>
</g>
</svg>
