<svg width="56" height="56" viewBox="0 0 56 56" fill="none" xmlns="http://www.w3.org/2000/svg">
<mask id="mask0_5334_520" style="mask-type:alpha" maskUnits="userSpaceOnUse" x="0" y="0" width="56" height="56">
<rect width="56" height="56" fill="#D9D9D9"/>
</mask>
<g mask="url(#mask0_5334_520)">
<path d="M45.7333 49L31.0333 34.3C29.8667 35.2333 28.525 35.9722 27.0083 36.5167C25.4917 37.0611 23.8778 37.3333 22.1667 37.3333C17.9278 37.3333 14.3407 35.8657 11.4053 32.9303C8.46844 29.9934 7 26.4056 7 22.1667C7 17.9278 8.46844 14.3399 11.4053 11.403C14.3407 8.46767 17.9278 7 22.1667 7C26.4056 7 29.9934 8.46767 32.9303 11.403C35.8657 14.3399 37.3333 17.9278 37.3333 22.1667C37.3333 23.8778 37.0611 25.4917 36.5167 27.0083C35.9722 28.525 35.2333 29.8667 34.3 31.0333L49 45.7333L45.7333 49ZM22.1667 32.6667C25.0833 32.6667 27.5629 31.6462 29.6053 29.6053C31.6462 27.5629 32.6667 25.0833 32.6667 22.1667C32.6667 19.25 31.6462 16.7704 29.6053 14.728C27.5629 12.6871 25.0833 11.6667 22.1667 11.6667C19.25 11.6667 16.7704 12.6871 14.728 14.728C12.6871 16.7704 11.6667 19.25 11.6667 22.1667C11.6667 25.0833 12.6871 27.5629 14.728 29.6053C16.7704 31.6462 19.25 32.6667 22.1667 32.6667Z" fill="#28303F"/>
</g>
</svg>
