<svg width="32" height="19" viewBox="0 0 32 19" fill="none" xmlns="http://www.w3.org/2000/svg">
<mask id="mask0_5334_9106" style="mask-type:alpha" maskUnits="userSpaceOnUse" x="0" y="0" width="32" height="32">
<rect width="32" height="32" fill="#D9D9D9"/>
</mask>
<g mask="url(#mask0_5334_9106)">
<path d="M18.6667 27.9999C19.0444 27.9999 19.3611 27.8721 19.6167 27.6166C19.8722 27.361 20 27.0444 20 26.6666C20 26.2888 19.8722 25.9721 19.6167 25.7166C19.3611 25.461 19.0444 25.3333 18.6667 25.3333C18.2889 25.3333 17.9722 25.461 17.7167 25.7166C17.4611 25.9721 17.3333 26.2888 17.3333 26.6666C17.3333 27.0444 17.4611 27.361 17.7167 27.6166C17.9722 27.8721 18.2889 27.9999 18.6667 27.9999ZM26.6667 14.6666C27.0444 14.6666 27.3611 14.5388 27.6167 14.2833C27.8722 14.0277 28 13.711 28 13.3333C28 12.9555 27.8722 12.6388 27.6167 12.3833C27.3611 12.1277 27.0444 11.9999 26.6667 11.9999C26.2889 11.9999 25.9722 12.1277 25.7167 12.3833C25.4611 12.6388 25.3333 12.9555 25.3333 13.3333C25.3333 13.711 25.4611 14.0277 25.7167 14.2833C25.9722 14.5388 26.2889 14.6666 26.6667 14.6666ZM8 14.6666H14.6667V11.9999H8V14.6666ZM8 19.9999H14.6667V17.3333H8V19.9999ZM5.33333 26.6666C4.6 26.6666 3.97222 26.4055 3.45 25.8833C2.92778 25.361 2.66667 24.7333 2.66667 23.9999V7.99992C2.66667 7.26659 2.92778 6.63881 3.45 6.11659C3.97222 5.59436 4.6 5.33325 5.33333 5.33325H26.6667C27.4 5.33325 28.0278 5.59436 28.55 6.11659C29.0722 6.63881 29.3333 7.26659 29.3333 7.99992H5.33333V23.9999H12V26.6666H5.33333ZM18.6667 30.6666C17.5556 30.6666 16.6111 30.2777 15.8333 29.4999C15.0556 28.7221 14.6667 27.7777 14.6667 26.6666C14.6667 25.7999 14.9167 25.0221 15.4167 24.3333C15.9167 23.6444 16.5556 23.1666 17.3333 22.8999V18.6666H25.3333V17.0999C24.5556 16.8333 23.9167 16.3555 23.4167 15.6666C22.9167 14.9777 22.6667 14.1999 22.6667 13.3333C22.6667 12.2221 23.0556 11.2777 23.8333 10.4999C24.6111 9.72214 25.5556 9.33325 26.6667 9.33325C27.7778 9.33325 28.7222 9.72214 29.5 10.4999C30.2778 11.2777 30.6667 12.2221 30.6667 13.3333C30.6667 14.1999 30.4167 14.9777 29.9167 15.6666C29.4167 16.3555 28.7778 16.8333 28 17.0999V21.3333H20V22.8999C20.7778 23.1666 21.4167 23.6444 21.9167 24.3333C22.4167 25.0221 22.6667 25.7999 22.6667 26.6666C22.6667 27.7777 22.2778 28.7221 21.5 29.4999C20.7222 30.2777 19.7778 30.6666 18.6667 30.6666Z" fill="#1C1B1F"/>
</g>
</svg>
