<svg width="36" height="36" viewBox="0 0 36 36" fill="none" xmlns="http://www.w3.org/2000/svg">
<mask id="mask0_5123_8799" style="mask-type:alpha" maskUnits="userSpaceOnUse" x="0" y="0" width="36" height="36">
<rect y="36" width="36" height="36" transform="rotate(-90 0 36)" fill="#D9D9D9"/>
</mask>
<g mask="url(#mask0_5123_8799)">
<path d="M30.0001 17.9998C30.0001 18.8248 29.7063 19.531 29.1188 20.1185C28.5313 20.706 27.8251 20.9998 27.0001 20.9998C26.1751 20.9998 25.4688 20.706 24.8813 20.1185C24.2938 19.531 24.0001 18.8248 24.0001 17.9998C24.0001 17.1748 24.2938 16.4685 24.8813 15.881C25.4688 15.2935 26.1751 14.9998 27.0001 14.9998C27.8251 14.9998 28.5313 15.2935 29.1188 15.881C29.7063 16.4685 30.0001 17.1748 30.0001 17.9998ZM21.0001 17.9998C21.0001 18.8248 20.7063 19.531 20.1188 20.1185C19.5313 20.706 18.8251 20.9998 18.0001 20.9998C17.1751 20.9998 16.4688 20.706 15.8813 20.1185C15.2938 19.531 15.0001 18.8248 15.0001 17.9998C15.0001 17.1748 15.2938 16.4685 15.8813 15.881C16.4688 15.2935 17.1751 14.9998 18.0001 14.9998C18.8251 14.9998 19.5313 15.2935 20.1188 15.881C20.7063 16.4685 21.0001 17.1748 21.0001 17.9998ZM12.0001 17.9998C12.0001 18.8248 11.7063 19.531 11.1188 20.1185C10.5313 20.706 9.82506 20.9998 9.00006 20.9998C8.17506 20.9998 7.46881 20.706 6.88131 20.1185C6.29381 19.531 6.00006 18.8248 6.00006 17.9998C6.00006 17.1748 6.29381 16.4685 6.88131 15.881C7.46881 15.2935 8.17506 14.9998 9.00006 14.9998C9.82506 14.9998 10.5313 15.2935 11.1188 15.881C11.7063 16.4685 12.0001 17.1748 12.0001 17.9998Z" fill="black"/>
</g>
</svg>
