<svg width="48" height="48" viewBox="0 0 48 48" fill="none" xmlns="http://www.w3.org/2000/svg">
<mask id="mask0_3098_15987" style="mask-type:alpha" maskUnits="userSpaceOnUse" x="0" y="0" width="48" height="48">
<rect width="48" height="48" fill="#D9D9D9"/>
</mask>
<g mask="url(#mask0_3098_15987)">
<path d="M24 44C21.2333 44 18.6333 43.475 16.2 42.425C13.7667 41.375 11.65 39.95 9.85 38.15C8.05 36.35 6.625 34.2333 5.575 31.8C4.525 29.3667 4 26.7667 4 24C4 21.2333 4.525 18.6333 5.575 16.2C6.625 13.7667 8.05 11.65 9.85 9.85C11.65 8.05 13.7667 6.625 16.2 5.575C18.6333 4.525 21.2333 4 24 4C25.4333 4 26.8167 4.14167 28.15 4.425C29.4833 4.70833 30.7667 5.11667 32 5.65V10.15C30.8333 9.48333 29.575 8.95833 28.225 8.575C26.875 8.19167 25.4667 8 24 8C19.5667 8 15.7917 9.55833 12.675 12.675C9.55833 15.7917 8 19.5667 8 24C8 28.4333 9.55833 32.2083 12.675 35.325C15.7917 38.4417 19.5667 40 24 40C28.4333 40 32.2083 38.4417 35.325 35.325C38.4417 32.2083 40 28.4333 40 24C40 22.9333 39.8917 21.9 39.675 20.9C39.4583 19.9 39.1667 18.9333 38.8 18H43.1C43.4 18.9667 43.625 19.9417 43.775 20.925C43.925 21.9083 44 22.9333 44 24C44 26.7667 43.475 29.3667 42.425 31.8C41.375 34.2333 39.95 36.35 38.15 38.15C36.35 39.95 34.2333 41.375 31.8 42.425C29.3667 43.475 26.7667 44 24 44ZM40 14V10H36V6H40V2H44V6H48V10H44V14H40ZM31 22C31.8333 22 32.5417 21.7083 33.125 21.125C33.7083 20.5417 34 19.8333 34 19C34 18.1667 33.7083 17.4583 33.125 16.875C32.5417 16.2917 31.8333 16 31 16C30.1667 16 29.4583 16.2917 28.875 16.875C28.2917 17.4583 28 18.1667 28 19C28 19.8333 28.2917 20.5417 28.875 21.125C29.4583 21.7083 30.1667 22 31 22ZM17 22C17.8333 22 18.5417 21.7083 19.125 21.125C19.7083 20.5417 20 19.8333 20 19C20 18.1667 19.7083 17.4583 19.125 16.875C18.5417 16.2917 17.8333 16 17 16C16.1667 16 15.4583 16.2917 14.875 16.875C14.2917 17.4583 14 18.1667 14 19C14 19.8333 14.2917 20.5417 14.875 21.125C15.4583 21.7083 16.1667 22 17 22ZM24 35C26.2667 35 28.325 34.3583 30.175 33.075C32.025 31.7917 33.3667 30.1 34.2 28H13.8C14.6333 30.1 15.975 31.7917 17.825 33.075C19.675 34.3583 21.7333 35 24 35Z" fill="#28303F"/>
</g>
</svg>
