<svg width="52" height="52" viewBox="0 0 52 52" fill="none" xmlns="http://www.w3.org/2000/svg">
<mask id="mask0_5534_2262" style="mask-type:alpha" maskUnits="userSpaceOnUse" x="0" y="0" width="52" height="52">
<rect width="52" height="52" fill="#D9D9D9"/>
</mask>
<g mask="url(#mask0_5534_2262)">
<path d="M26.0003 43.3334C24.8087 43.3334 23.7885 42.9091 22.9399 42.0605C22.0913 41.2119 21.667 40.1917 21.667 39.0001C21.667 37.8084 22.0913 36.7883 22.9399 35.9397C23.7885 35.0911 24.8087 34.6667 26.0003 34.6667C27.192 34.6667 28.2121 35.0911 29.0607 35.9397C29.9094 36.7883 30.3337 37.8084 30.3337 39.0001C30.3337 40.1917 29.9094 41.2119 29.0607 42.0605C28.2121 42.9091 27.192 43.3334 26.0003 43.3334ZM26.0003 30.3334C24.8087 30.3334 23.7885 29.9091 22.9399 29.0605C22.0913 28.2119 21.667 27.1917 21.667 26.0001C21.667 24.8084 22.0913 23.7883 22.9399 22.9397C23.7885 22.0911 24.8087 21.6667 26.0003 21.6667C27.192 21.6667 28.2121 22.0911 29.0607 22.9397C29.9094 23.7883 30.3337 24.8084 30.3337 26.0001C30.3337 27.1917 29.9094 28.2119 29.0607 29.0605C28.2121 29.9091 27.192 30.3334 26.0003 30.3334ZM26.0003 17.3334C24.8087 17.3334 23.7885 16.9091 22.9399 16.0605C22.0913 15.2119 21.667 14.1917 21.667 13.0001C21.667 11.8084 22.0913 10.7883 22.9399 9.93966C23.7885 9.09105 24.8087 8.66675 26.0003 8.66675C27.192 8.66675 28.2121 9.09105 29.0607 9.93966C29.9094 10.7883 30.3337 11.8084 30.3337 13.0001C30.3337 14.1917 29.9094 15.2119 29.0607 16.0605C28.2121 16.9091 27.192 17.3334 26.0003 17.3334Z" fill="#28303F"/>
</g>
</svg>
