<svg width="53" height="53" viewBox="0 0 53 53" fill="none" xmlns="http://www.w3.org/2000/svg">
<mask id="mask0_5415_26701" style="mask-type:alpha" maskUnits="userSpaceOnUse" x="0" y="0" width="53" height="53">
<rect x="0.5" y="0.5" width="52" height="52" fill="#D9D9D9"/>
</mask>
<g mask="url(#mask0_5415_26701)">
<path d="M14.5833 38.4163L30.8333 30.833L38.4166 14.583L22.1666 22.1663L14.5833 38.4163ZM26.4999 28.6663C25.886 28.6663 25.3714 28.4587 24.9562 28.0434C24.5409 27.6281 24.3333 27.1136 24.3333 26.4997C24.3333 25.8858 24.5409 25.3712 24.9562 24.9559C25.3714 24.5406 25.886 24.333 26.4999 24.333C27.1138 24.333 27.6284 24.5406 28.0437 24.9559C28.4589 25.3712 28.6666 25.8858 28.6666 26.4997C28.6666 27.1136 28.4589 27.6281 28.0437 28.0434C27.6284 28.4587 27.1138 28.6663 26.4999 28.6663ZM26.4999 48.1663C23.5027 48.1663 20.686 47.5976 18.0499 46.4601C15.4138 45.3226 13.1208 43.7788 11.1708 41.8288C9.22075 39.8788 7.677 37.5858 6.5395 34.9497C5.402 32.3136 4.83325 29.4969 4.83325 26.4997C4.83325 23.5025 5.402 20.6858 6.5395 18.0497C7.677 15.4136 9.22075 13.1205 11.1708 11.1705C13.1208 9.22051 15.4138 7.67676 18.0499 6.53926C20.686 5.40176 23.5027 4.83301 26.4999 4.83301C29.4971 4.83301 32.3138 5.40176 34.9499 6.53926C37.586 7.67676 39.8791 9.22051 41.8291 11.1705C43.7791 13.1205 45.3228 15.4136 46.4603 18.0497C47.5978 20.6858 48.1666 23.5025 48.1666 26.4997C48.1666 29.4969 47.5978 32.3136 46.4603 34.9497C45.3228 37.5858 43.7791 39.8788 41.8291 41.8288C39.8791 43.7788 37.586 45.3226 34.9499 46.4601C32.3138 47.5976 29.4971 48.1663 26.4999 48.1663ZM26.4999 43.833C31.3388 43.833 35.4374 42.1538 38.7958 38.7955C42.1541 35.4372 43.8333 31.3386 43.8333 26.4997C43.8333 21.6608 42.1541 17.5622 38.7958 14.2038C35.4374 10.8455 31.3388 9.16634 26.4999 9.16634C21.661 9.16634 17.5624 10.8455 14.2041 14.2038C10.8458 17.5622 9.16659 21.6608 9.16659 26.4997C9.16659 31.3386 10.8458 35.4372 14.2041 38.7955C17.5624 42.1538 21.661 43.833 26.4999 43.833Z" fill="#28303F"/>
</g>
</svg>
