<svg width="53" height="53" viewBox="0 0 53 53" fill="none" xmlns="http://www.w3.org/2000/svg">
<mask id="mask0_5415_26687" style="mask-type:alpha" maskUnits="userSpaceOnUse" x="0" y="0" width="53" height="53">
<rect x="0.5" y="0.5" width="52" height="52" fill="#D9D9D9"/>
</mask>
<g mask="url(#mask0_5415_26687)">
<path d="M9.16675 41.6668V37.3335H13.5001V22.1668C13.5001 19.1696 14.4029 16.5064 16.2084 14.1772C18.014 11.8481 20.3612 10.3224 23.2501 9.60016V8.0835C23.2501 7.18072 23.5661 6.41336 24.198 5.78141C24.8299 5.14947 25.5973 4.8335 26.5001 4.8335C27.4029 4.8335 28.1702 5.14947 28.8022 5.78141C29.4341 6.41336 29.7501 7.18072 29.7501 8.0835V9.60016C32.639 10.3224 34.9862 11.8481 36.7917 14.1772C38.5973 16.5064 39.5001 19.1696 39.5001 22.1668V37.3335H43.8334V41.6668H9.16675ZM26.5001 48.1668C25.3084 48.1668 24.2883 47.7425 23.4397 46.8939C22.5911 46.0453 22.1667 45.0252 22.1667 43.8335H30.8334C30.8334 45.0252 30.4091 46.0453 29.5605 46.8939C28.7119 47.7425 27.6917 48.1668 26.5001 48.1668ZM17.8334 37.3335H35.1667V22.1668C35.1667 19.7835 34.3181 17.7432 32.6209 16.046C30.9237 14.3488 28.8834 13.5002 26.5001 13.5002C24.1167 13.5002 22.0765 14.3488 20.3792 16.046C18.682 17.7432 17.8334 19.7835 17.8334 22.1668V37.3335Z" fill="#28303F"/>
</g>
</svg>
