<svg width="53" height="53" viewBox="0 0 53 53" fill="none" xmlns="http://www.w3.org/2000/svg">
<path d="M26.5001 7C30.2701 7 33.7801 8.08333 36.7701 9.925C38.1567 8.14833 40.3234 7 42.7501 7C44.7613 7 46.6902 7.79896 48.1123 9.22111C49.5345 10.6433 50.3334 12.5721 50.3334 14.5833C50.3334 17.8333 48.2751 20.6067 45.3934 21.69C45.7834 23.25 46.0001 24.8317 46.0001 26.5C46.0001 31.6717 43.9456 36.6316 40.2887 40.2886C36.6317 43.9455 31.6718 46 26.5001 46C21.3284 46 16.3685 43.9455 12.7115 40.2886C9.05454 36.6316 7.00008 31.6717 7.00008 26.5C7.00008 24.8317 7.21675 23.25 7.60675 21.69C4.72508 20.6067 2.66675 17.8333 2.66675 14.5833C2.66675 12.5721 3.4657 10.6433 4.88785 9.22111C6.31001 7.79896 8.23886 7 10.2501 7C12.6767 7 14.8434 8.14833 16.2301 9.925C19.2201 8.08333 22.7301 7 26.5001 7ZM26.5001 11.3333C22.4776 11.3333 18.6199 12.9312 15.7756 15.7755C12.9313 18.6198 11.3334 22.4776 11.3334 26.5C11.3334 30.5225 12.9313 34.3802 15.7756 37.2245C18.6199 40.0688 22.4776 41.6667 26.5001 41.6667C30.5225 41.6667 34.3802 40.0688 37.2245 37.2245C40.0688 34.3802 41.6667 30.5225 41.6667 26.5C41.6667 22.4776 40.0688 18.6198 37.2245 15.7755C34.3802 12.9312 30.5225 11.3333 26.5001 11.3333ZM35.5784 22.8167C36.3584 25.6983 35.3401 28.4717 33.3251 29.0133C31.2884 29.5767 29.0351 27.67 28.2551 24.7667C27.4751 21.885 28.4934 19.1117 30.5084 18.57C32.5451 18.0283 34.7984 19.9133 35.5784 22.8167ZM17.4217 22.8167C18.2017 19.9133 20.4551 18.0283 22.4917 18.57C24.5067 19.1117 25.5251 21.885 24.7451 24.7667C23.9651 27.67 21.7117 29.5767 19.6751 29.0133C17.6601 28.4717 16.6417 25.6983 17.4217 22.8167ZM26.5001 30.8333C27.8001 30.8333 28.9484 31.245 29.7501 31.9167L27.5834 34.0833C27.5834 34.9933 28.3201 35.7083 29.2084 35.7083C29.6394 35.7083 30.0527 35.5371 30.3575 35.2324C30.6622 34.9276 30.8334 34.5143 30.8334 34.0833C30.8334 33.796 30.9476 33.5205 31.1507 33.3173C31.3539 33.1141 31.6294 33 31.9167 33C32.2041 33 32.4796 33.1141 32.6828 33.3173C32.8859 33.5205 33.0001 33.796 33.0001 34.0833C33.0001 35.0889 32.6006 36.0534 31.8895 36.7644C31.1785 37.4755 30.214 37.875 29.2084 37.875C28.1467 37.875 27.1934 37.4417 26.5001 36.7267C25.8067 37.4417 24.8534 37.875 23.7917 37.875C22.7861 37.875 21.8217 37.4755 21.1106 36.7644C20.3996 36.0534 20.0001 35.0889 20.0001 34.0833C20.0001 33.796 20.1142 33.5205 20.3174 33.3173C20.5205 33.1141 20.7961 33 21.0834 33C21.3707 33 21.6463 33.1141 21.8494 33.3173C22.0526 33.5205 22.1667 33.796 22.1667 34.0833C22.1667 34.5143 22.338 34.9276 22.6427 35.2324C22.9474 35.5371 23.3608 35.7083 23.7917 35.7083C24.2227 35.7083 24.636 35.5371 24.9408 35.2324C25.2455 34.9276 25.4167 34.5143 25.4167 34.0833L23.2501 31.9167C24.0517 31.245 25.2001 30.8333 26.5001 30.8333Z" fill="#28303F"/>
</svg>
