<svg width="32" height="19" viewBox="0 0 32 19" fill="none" xmlns="http://www.w3.org/2000/svg">
<mask id="mask0_5334_9103" style="mask-type:alpha" maskUnits="userSpaceOnUse" x="0" y="0" width="32" height="32">
<rect width="32" height="32" fill="#D9D9D9"/>
</mask>
<g mask="url(#mask0_5334_9103)">
<path d="M10.4 6.96659L9.06667 2.96659L10.9333 2.36659L12.2667 6.33325L10.4 6.96659ZM15 5.33325V1.33325H17V5.33325H15ZM21.6 6.96659L19.7333 6.33325L21.0667 2.36659L22.9333 2.99992L21.6 6.96659ZM2.86667 30.6666L2.46667 28.0333L9.5 26.9666C9.74444 26.9221 9.96111 26.8166 10.15 26.6499C10.3389 26.4833 10.4778 26.2777 10.5667 26.0333L11.7 22.4999C11.8111 22.1888 11.8111 21.8888 11.7 21.5999C11.5889 21.311 11.3889 21.0888 11.1 20.9333L10 24.3999L7.46667 23.5999L10.4 14.3333C10.4444 14.1999 10.4667 14.0555 10.4667 13.8999C10.4667 13.7444 10.4444 13.5999 10.4 13.4666L5.93333 21.8666C5.57778 22.511 5.08333 23.0277 4.45 23.4166C3.81667 23.8055 3.13333 23.9999 2.4 23.9999H1.33333V21.3333H2.4C2.64444 21.3333 2.87222 21.2721 3.08333 21.1499C3.29444 21.0277 3.45555 20.8555 3.56667 20.6333L9.46667 9.49992L11.1333 10.4333C11.9556 10.8999 12.5389 11.5721 12.8833 12.4499C13.2278 13.3277 13.2556 14.2221 12.9667 15.1333L11.9333 18.3999C12.9111 18.7777 13.6167 19.4444 14.05 20.3999C14.4833 21.3555 14.5444 22.3333 14.2333 23.3333L13.1 26.8666C12.8556 27.5777 12.45 28.1833 11.8833 28.6833C11.3167 29.1833 10.6556 29.4888 9.9 29.5999L2.86667 30.6666ZM29.1333 30.6666L22.1 29.5999C21.3444 29.4888 20.6833 29.1833 20.1167 28.6833C19.55 28.1833 19.1444 27.5777 18.9 26.8666L17.7667 23.3333C17.4556 22.3333 17.5167 21.3555 17.95 20.3999C18.3833 19.4444 19.0889 18.7777 20.0667 18.3999L19.0333 15.1333C18.7444 14.2221 18.7722 13.3277 19.1167 12.4499C19.4611 11.5721 20.0444 10.8999 20.8667 10.4333L22.5333 9.49992L28.4333 20.6333C28.5444 20.8555 28.7056 21.0277 28.9167 21.1499C29.1278 21.2721 29.3556 21.3333 29.6 21.3333H30.6667V23.9999H29.6C28.8667 23.9999 28.1833 23.8055 27.55 23.4166C26.9167 23.0277 26.4222 22.511 26.0667 21.8666L21.6 13.4666C21.5556 13.5999 21.5333 13.7444 21.5333 13.8999C21.5333 14.0555 21.5556 14.1999 21.6 14.3333L24.5333 23.5999L22 24.3999L20.9 20.9333C20.6111 21.0888 20.4111 21.311 20.3 21.5999C20.1889 21.8888 20.1889 22.1888 20.3 22.4999L21.4333 26.0333C21.5222 26.2777 21.6611 26.4833 21.85 26.6499C22.0389 26.8166 22.2556 26.9221 22.5 26.9666L29.5333 28.0333L29.1333 30.6666Z" fill="#1C1B1F"/>
</g>
</svg>
