<svg width="42" height="42" viewBox="0 0 42 42" fill="none" xmlns="http://www.w3.org/2000/svg">
<mask id="mask0_3969_5159" style="mask-type:alpha" maskUnits="userSpaceOnUse" x="0" y="0" width="42" height="42">
<rect width="42" height="42" fill="#D9D9D9"/>
</mask>
<g mask="url(#mask0_3969_5159)">
<path d="M8.75 41.4751C7.7875 41.4751 6.96354 41.1324 6.27813 40.447C5.59271 39.7616 5.25 38.9376 5.25 37.9751V13.4751C5.25 12.5126 5.59271 11.6887 6.27813 11.0033C6.96354 10.3179 7.7875 9.97515 8.75 9.97515H24.3687L20.8688 13.4751H8.75V37.9751H33.25V25.8126L36.75 22.3126V37.9751C36.75 38.9376 36.4073 39.7616 35.7219 40.447C35.0365 41.1324 34.2125 41.4751 33.25 41.4751H8.75ZM28.3062 10.9814L30.8 13.4314L19.25 24.9814V27.4751H21.7L33.2937 15.8814L35.7875 18.3314L23.1875 30.9751H15.75V23.5376L28.3062 10.9814ZM35.7875 18.3314L28.3062 10.9814L32.6812 6.6064C33.3813 5.9064 34.2198 5.5564 35.1969 5.5564C36.174 5.5564 36.9979 5.9064 37.6688 6.6064L40.1188 9.10015C40.7896 9.77098 41.125 10.5876 41.125 11.5501C41.125 12.5126 40.7896 13.3293 40.1188 14.0001L35.7875 18.3314Z" fill="#979797"/>
</g>
</svg>
