<svg width="49" height="48" viewBox="0 0 49 48" fill="none" xmlns="http://www.w3.org/2000/svg">
<mask id="mask0_3969_5151" style="mask-type:alpha" maskUnits="userSpaceOnUse" x="0" y="0" width="49" height="48">
<rect x="0.5" width="48" height="48" fill="#D9D9D9"/>
</mask>
<g mask="url(#mask0_3969_5151)">
<path d="M4.50098 38V34H24.501V38H4.50098ZM4.50098 28V24H14.501V28H4.50098ZM4.50098 18V14H14.501V18H4.50098ZM41.701 38L34.001 30.3C33.201 30.8667 32.326 31.2917 31.376 31.575C30.426 31.8583 29.4676 32 28.501 32C25.7343 32 23.376 31.025 21.426 29.075C19.476 27.125 18.501 24.7667 18.501 22C18.501 19.2333 19.476 16.875 21.426 14.925C23.376 12.975 25.7343 12 28.501 12C31.2676 12 33.626 12.975 35.576 14.925C37.526 16.875 38.501 19.2333 38.501 22C38.501 22.9667 38.3593 23.925 38.076 24.875C37.7926 25.825 37.3676 26.7 36.801 27.5L44.501 35.2L41.701 38ZM28.501 28C30.1676 28 31.5843 27.4167 32.751 26.25C33.9176 25.0833 34.501 23.6667 34.501 22C34.501 20.3333 33.9176 18.9167 32.751 17.75C31.5843 16.5833 30.1676 16 28.501 16C26.8343 16 25.4176 16.5833 24.251 17.75C23.0843 18.9167 22.501 20.3333 22.501 22C22.501 23.6667 23.0843 25.0833 24.251 26.25C25.4176 27.4167 26.8343 28 28.501 28Z" fill="#979797"/>
</g>
</svg>
