<svg width="53" height="53" viewBox="0 0 53 53" fill="none" xmlns="http://www.w3.org/2000/svg">
<mask id="mask0_5415_26708" style="mask-type:alpha" maskUnits="userSpaceOnUse" x="0" y="0" width="53" height="53">
<rect x="0.5" y="0.5" width="52" height="52" fill="#D9D9D9"/>
</mask>
<g mask="url(#mask0_5415_26708)">
<path d="M7 50.3332V15.6665C7 14.4748 7.42431 13.4547 8.27292 12.6061C9.12153 11.7575 10.1417 11.3332 11.3333 11.3332H33C34.1917 11.3332 35.2118 11.7575 36.0604 12.6061C36.909 13.4547 37.3333 14.4748 37.3333 15.6665V50.3332L22.1667 43.8332L7 50.3332ZM11.3333 43.7248L22.1667 39.0665L33 43.7248V15.6665H11.3333V43.7248ZM41.6667 43.8332V6.99984H13.5V2.6665H41.6667C42.8583 2.6665 43.8785 3.09081 44.7271 3.93942C45.5757 4.78803 46 5.80817 46 6.99984V43.8332H41.6667Z" fill="#28303F"/>
</g>
</svg>
