<svg width="37" height="37" viewBox="0 0 37 37" fill="none" xmlns="http://www.w3.org/2000/svg">
<mask id="mask0_5415_31059" style="mask-type:alpha" maskUnits="userSpaceOnUse" x="0" y="0" width="37" height="37">
<rect x="0.5" y="0.30127" width="36" height="36" fill="#D9D9D9"/>
</mask>
<g mask="url(#mask0_5415_31059)">
<path d="M11.6375 25.1638H14.7875L22.9625 16.9888L19.8125 13.8388L11.6375 22.0138V25.1638ZM23.8625 16.0888L24.9125 15.0388C25.2125 14.7388 25.3625 14.3888 25.3625 13.9888C25.3625 13.5888 25.2125 13.2388 24.9125 12.9388L23.8625 11.8888C23.5625 11.5888 23.2125 11.4388 22.8125 11.4388C22.4125 11.4388 22.0625 11.5888 21.7625 11.8888L20.7125 12.9388L23.8625 16.0888ZM18.5 33.3013C16.425 33.3013 14.475 32.9075 12.65 32.12C10.825 31.3325 9.2375 30.2638 7.8875 28.9138C6.5375 27.5638 5.46875 25.9763 4.68125 24.1513C3.89375 22.3263 3.5 20.3763 3.5 18.3013C3.5 16.2263 3.89375 14.2763 4.68125 12.4513C5.46875 10.6263 6.5375 9.03877 7.8875 7.68877C9.2375 6.33877 10.825 5.27002 12.65 4.48252C14.475 3.69502 16.425 3.30127 18.5 3.30127C20.575 3.30127 22.525 3.69502 24.35 4.48252C26.175 5.27002 27.7625 6.33877 29.1125 7.68877C30.4625 9.03877 31.5312 10.6263 32.3187 12.4513C33.1062 14.2763 33.5 16.2263 33.5 18.3013C33.5 20.3763 33.1062 22.3263 32.3187 24.1513C31.5312 25.9763 30.4625 27.5638 29.1125 28.9138C27.7625 30.2638 26.175 31.3325 24.35 32.12C22.525 32.9075 20.575 33.3013 18.5 33.3013ZM18.5 30.3013C21.85 30.3013 24.6875 29.1388 27.0125 26.8138C29.3375 24.4888 30.5 21.6513 30.5 18.3013C30.5 14.9513 29.3375 12.1138 27.0125 9.78877C24.6875 7.46377 21.85 6.30127 18.5 6.30127C15.15 6.30127 12.3125 7.46377 9.9875 9.78877C7.6625 12.1138 6.5 14.9513 6.5 18.3013C6.5 21.6513 7.6625 24.4888 9.9875 26.8138C12.3125 29.1388 15.15 30.3013 18.5 30.3013Z" fill="white"/>
</g>
</svg>
