<svg width="32" height="32" viewBox="0 0 32 32" fill="none" xmlns="http://www.w3.org/2000/svg">
<mask id="mask0_3921_42117" style="mask-type:alpha" maskUnits="userSpaceOnUse" x="0" y="0" width="32" height="32">
<rect width="32" height="32" fill="#D9D9D9"/>
</mask>
<g mask="url(#mask0_3921_42117)">
<path d="M25.3333 10.6666V7.99996H22.6667V5.33329H25.3333V2.66663H28V5.33329H30.6667V7.99996H28V10.6666H25.3333ZM4 29.3333C3.26667 29.3333 2.63889 29.0722 2.11667 28.55C1.59445 28.0277 1.33334 27.4 1.33334 26.6666V10.6666C1.33334 9.93329 1.59445 9.30551 2.11667 8.78329C2.63889 8.26107 3.26667 7.99996 4 7.99996H8.2L10.6667 5.33329H18.6667V7.99996H11.8333L9.4 10.6666H4V26.6666H25.3333V14.6666H28V26.6666C28 27.4 27.7389 28.0277 27.2167 28.55C26.6944 29.0722 26.0667 29.3333 25.3333 29.3333H4ZM14.6667 24.6666C16.3333 24.6666 17.75 24.0833 18.9167 22.9166C20.0833 21.75 20.6667 20.3333 20.6667 18.6666C20.6667 17 20.0833 15.5833 18.9167 14.4166C17.75 13.25 16.3333 12.6666 14.6667 12.6666C13 12.6666 11.5833 13.25 10.4167 14.4166C9.25 15.5833 8.66667 17 8.66667 18.6666C8.66667 20.3333 9.25 21.75 10.4167 22.9166C11.5833 24.0833 13 24.6666 14.6667 24.6666ZM14.6667 22C13.7333 22 12.9444 21.6777 12.3 21.0333C11.6556 20.3888 11.3333 19.6 11.3333 18.6666C11.3333 17.7333 11.6556 16.9444 12.3 16.3C12.9444 15.6555 13.7333 15.3333 14.6667 15.3333C15.6 15.3333 16.3889 15.6555 17.0333 16.3C17.6778 16.9444 18 17.7333 18 18.6666C18 19.6 17.6778 20.3888 17.0333 21.0333C16.3889 21.6777 15.6 22 14.6667 22Z" fill="#28303F"/>
</g>
</svg>
