<svg width="32" height="32" viewBox="0 0 32 32" fill="none" xmlns="http://www.w3.org/2000/svg">
<mask id="mask0_3921_42120" style="mask-type:alpha" maskUnits="userSpaceOnUse" x="0" y="0" width="32" height="32">
<rect width="32" height="32" fill="#D9D9D9"/>
</mask>
<g mask="url(#mask0_3921_42120)">
<path d="M15.3333 29.3333C13.2889 29.3333 11.5556 28.6222 10.1333 27.2C8.71111 25.7777 8 24.0444 8 22V7.99996C8 6.53329 8.52222 5.27774 9.56667 4.23329C10.6111 3.18885 11.8667 2.66663 13.3333 2.66663C14.8 2.66663 16.0556 3.18885 17.1 4.23329C18.1444 5.27774 18.6667 6.53329 18.6667 7.99996V20.6666C18.6667 21.6 18.3444 22.3888 17.7 23.0333C17.0556 23.6777 16.2667 24 15.3333 24C14.4 24 13.6111 23.6777 12.9667 23.0333C12.3222 22.3888 12 21.6 12 20.6666V7.99996H14V20.6666C14 21.0444 14.1278 21.3611 14.3833 21.6166C14.6389 21.8722 14.9556 22 15.3333 22C15.7111 22 16.0278 21.8722 16.2833 21.6166C16.5389 21.3611 16.6667 21.0444 16.6667 20.6666V7.99996C16.6667 7.06663 16.3444 6.27774 15.7 5.63329C15.0556 4.98885 14.2667 4.66663 13.3333 4.66663C12.4 4.66663 11.6111 4.98885 10.9667 5.63329C10.3222 6.27774 10 7.06663 10 7.99996V22C10 23.4666 10.5222 24.7222 11.5667 25.7666C12.6111 26.8111 13.8667 27.3333 15.3333 27.3333C16.8 27.3333 18.0556 26.8111 19.1 25.7666C20.1444 24.7222 20.6667 23.4666 20.6667 22V7.99996H22.6667V22C22.6667 24.0444 21.9556 25.7777 20.5333 27.2C19.1111 28.6222 17.3778 29.3333 15.3333 29.3333Z" fill="#28303F"/>
</g>
</svg>
