<svg width="32" height="32" viewBox="0 0 32 32" fill="none" xmlns="http://www.w3.org/2000/svg">
<mask id="mask0_3921_42123" style="mask-type:alpha" maskUnits="userSpaceOnUse" x="0" y="0" width="32" height="32">
<rect width="32" height="32" fill="#D9D9D9"/>
</mask>
<g mask="url(#mask0_3921_42123)">
<path d="M16 18.6666C14.8889 18.6666 13.9444 18.2777 13.1667 17.5C12.3889 16.7222 12 15.7777 12 14.6666V6.66663C12 5.55552 12.3889 4.61107 13.1667 3.83329C13.9444 3.05551 14.8889 2.66663 16 2.66663C17.1111 2.66663 18.0555 3.05551 18.8333 3.83329C19.6111 4.61107 20 5.55552 20 6.66663V14.6666C20 15.7777 19.6111 16.7222 18.8333 17.5C18.0555 18.2777 17.1111 18.6666 16 18.6666ZM14.6667 28V23.9C12.3555 23.5889 10.4444 22.5555 8.93332 20.8C7.42221 19.0444 6.66666 17 6.66666 14.6666H9.33332C9.33332 16.5111 9.98332 18.0833 11.2833 19.3833C12.5833 20.6833 14.1555 21.3333 16 21.3333C17.8444 21.3333 19.4167 20.6833 20.7167 19.3833C22.0167 18.0833 22.6667 16.5111 22.6667 14.6666H25.3333C25.3333 17 24.5778 19.0444 23.0667 20.8C21.5555 22.5555 19.6444 23.5889 17.3333 23.9V28H14.6667ZM16 16C16.3778 16 16.6944 15.8722 16.95 15.6166C17.2055 15.3611 17.3333 15.0444 17.3333 14.6666V6.66663C17.3333 6.28885 17.2055 5.97218 16.95 5.71663C16.6944 5.46107 16.3778 5.33329 16 5.33329C15.6222 5.33329 15.3055 5.46107 15.05 5.71663C14.7944 5.97218 14.6667 6.28885 14.6667 6.66663V14.6666C14.6667 15.0444 14.7944 15.3611 15.05 15.6166C15.3055 15.8722 15.6222 16 16 16Z" fill="#28303F"/>
</g>
</svg>
