<svg width="36" height="36" viewBox="0 0 36 36" fill="none" xmlns="http://www.w3.org/2000/svg">
<path d="M18 21C16.3431 21 15 19.6569 15 18C15 16.3431 16.3431 15 18 15C19.6569 15 21 16.3431 21 18C21 19.6569 19.6569 21 18 21Z" stroke="#28303F" stroke-width="1.5"/>
<path d="M30 21C28.3431 21 27 19.6569 27 18C27 16.3431 28.3431 15 30 15C31.6569 15 33 16.3431 33 18C33 19.6569 31.6569 21 30 21Z" stroke="#28303F" stroke-width="1.5"/>
<path d="M6 21C4.34315 21 3 19.6569 3 18C3 16.3431 4.34315 15 6 15C7.65685 15 9 16.3431 9 18C9 19.6569 7.65685 21 6 21Z" stroke="#28303F" stroke-width="1.5"/>
</svg>
