<svg width="33" height="32" viewBox="0 0 33 32" fill="none" xmlns="http://www.w3.org/2000/svg">
<mask id="mask0_2851_5553" style="mask-type:alpha" maskUnits="userSpaceOnUse" x="0" y="0" width="33" height="32">
<rect x="0.5" width="32" height="32" fill="#D9D9D9"/>
</mask>
<g mask="url(#mask0_2851_5553)">
<path d="M19.1667 14.6666C20.2778 14.6666 21.2222 14.2777 22 13.5C22.7778 12.7222 23.1667 11.7777 23.1667 10.6666C23.1667 9.55551 22.7778 8.61107 22 7.83329C21.2222 7.05551 20.2778 6.66663 19.1667 6.66663C18.0556 6.66663 17.1111 7.05551 16.3334 7.83329C15.5556 8.61107 15.1667 9.55551 15.1667 10.6666C15.1667 11.7777 15.5556 12.7222 16.3334 13.5C17.1111 14.2777 18.0556 14.6666 19.1667 14.6666ZM11.1667 21C12.1667 19.8222 13.3667 18.9166 14.7667 18.2833C16.1667 17.65 17.6334 17.3333 19.1667 17.3333C20.7 17.3333 22.1667 17.65 23.5667 18.2833C24.9667 18.9166 26.1667 19.8222 27.1667 21V5.33329H11.1667V21ZM11.1667 24C10.4334 24 9.80558 23.7388 9.28335 23.2166C8.76113 22.6944 8.50002 22.0666 8.50002 21.3333V5.33329C8.50002 4.59996 8.76113 3.97218 9.28335 3.44996C9.80558 2.92774 10.4334 2.66663 11.1667 2.66663H27.1667C27.9 2.66663 28.5278 2.92774 29.05 3.44996C29.5722 3.97218 29.8334 4.59996 29.8334 5.33329V21.3333C29.8334 22.0666 29.5722 22.6944 29.05 23.2166C28.5278 23.7388 27.9 24 27.1667 24H11.1667ZM5.83335 29.3333C5.10002 29.3333 4.47224 29.0722 3.95002 28.55C3.4278 28.0277 3.16669 27.4 3.16669 26.6666V7.99996H5.83335V26.6666H24.5V29.3333H5.83335ZM19.1667 12C18.7889 12 18.4722 11.8722 18.2167 11.6166C17.9611 11.3611 17.8334 11.0444 17.8334 10.6666C17.8334 10.2888 17.9611 9.97218 18.2167 9.71663C18.4722 9.46107 18.7889 9.33329 19.1667 9.33329C19.5445 9.33329 19.8611 9.46107 20.1167 9.71663C20.3722 9.97218 20.5 10.2888 20.5 10.6666C20.5 11.0444 20.3722 11.3611 20.1167 11.6166C19.8611 11.8722 19.5445 12 19.1667 12ZM14.7667 21.3333H23.5667C22.9222 20.8888 22.2222 20.5555 21.4667 20.3333C20.7111 20.1111 19.9445 20 19.1667 20C18.3889 20 17.6222 20.1111 16.8667 20.3333C16.1111 20.5555 15.4111 20.8888 14.7667 21.3333Z" fill="#28303F"/>
</g>
</svg>
